<?xml version="1.0" standalone="no"?>
<!DOCTYPE svg PUBLIC "-//W3C//DTD SVG 20010904//EN"
 "http://www.w3.org/TR/2001/REC-SVG-20010904/DTD/svg10.dtd">
<svg version="1.0" xmlns="http://www.w3.org/2000/svg"
 width="70.000000pt" height="70.000000pt" viewBox="0 0 70.000000 70.000000"
 preserveAspectRatio="xMidYMid meet">
<metadata>
Created by potrace 1.11, written by Peter Selinger 2001-2013
</metadata>
<g transform="translate(0.000000,70.000000) scale(0.100000,-0.100000)"
fill="#000000" stroke="none">
<path d="M355 648 c-5 -24 -9 -46 -10 -50 -1 -5 -3 -17 -4 -28 0 -11 -6 -20
-12 -20 -5 0 -8 3 -6 8 3 4 1 15 -2 26 -6 16 -13 13 -60 -27 l-54 -46 -38 19
c-53 27 -55 25 -23 -17 l27 -36 -29 -23 c-25 -21 -27 -26 -16 -44 10 -16 10
-20 0 -21 -28 -1 -63 -10 -70 -17 -5 -6 30 -185 48 -240 2 -9 28 3 77 37 l74
50 -14 -62 c-8 -33 -17 -66 -19 -72 -6 -11 19 17 52 59 l21 26 49 -74 c52 -80
69 -93 60 -49 -6 32 -13 70 -21 128 l-6 40 32 -35 c17 -19 38 -45 47 -58 8
-12 17 -21 19 -18 6 6 41 141 49 186 3 19 8 39 11 44 3 5 -4 16 -17 26 l-22
17 65 41 c36 23 69 47 73 53 4 7 3 9 -3 6 -6 -4 -29 -9 -53 -12 -23 -3 -46 -8
-51 -11 -18 -11 -8 15 16 44 l25 30 -96 81 c-54 45 -100 81 -104 81 -4 0 -11
-19 -15 -42z"/>
</g>
</svg>
